<svg width="98" height="99" viewBox="0 0 98 99" fill="none" xmlns="http://www.w3.org/2000/svg">
<path d="M84.2046 0H13.7954C6.1764 0 0 6.1764 0 13.7954V84.2046C0 91.8236 6.1764 98 13.7954 98H84.2046C91.8236 98 98 91.8236 98 84.2046V13.7954C98 6.1764 91.8236 0 84.2046 0Z" fill="#222221"/>
<path d="M39.9287 42.0899C40.2553 43.3463 41.5243 43.9933 42.8184 43.5662C53.4037 40.3372 64.0141 38.1259 74.9637 36.5177C76.2201 36.3481 76.9048 35.0665 76.4462 33.7724C75.4725 31.0523 74.9825 29.6954 73.99 26.9941C73.5691 25.8445 72.4257 25.0906 71.2573 25.2163C60.5589 26.5229 50.2187 28.4578 39.8596 31.4292C38.5089 31.8501 37.6797 33.3453 38.0252 34.677C38.7791 37.6359 39.1623 39.1185 39.935 42.0836L39.9287 42.0899Z" fill="#F9F9F9"/>
<path d="M82.8288 43.5723C82.4204 42.3599 81.3022 41.5432 80.2029 41.6877C63.4549 43.8047 47.1404 47.9132 31.674 54.6978C30.5433 55.2255 29.8711 56.6327 30.1035 57.8765C30.7066 61.049 31.0144 62.6383 31.6363 65.8108C31.9002 67.1677 33.1817 67.7959 34.4444 67.1865C50.1558 60.0501 66.7593 55.5082 83.7899 52.8006C84.8704 52.6247 85.4233 51.3935 85.0087 50.1245C84.148 47.4986 83.7146 46.1856 82.8288 43.5723Z" fill="#F9F9F9"/>
<path d="M82.7785 61.2879C82.3639 59.9938 81.1515 59.1457 79.9956 59.3782C69.536 61.6271 59.3151 64.341 49.1884 67.7898C47.9069 68.2547 47.1782 69.5991 47.5174 70.8366C48.3215 73.7829 48.7298 75.2529 49.5402 78.2118C49.9234 79.6001 51.4939 80.31 52.9388 79.7634C63.0655 76.1701 73.2864 73.0291 83.7397 70.51C84.7448 70.2713 85.2348 69.1028 84.8642 67.9029C84.0412 65.2519 83.6266 63.9264 82.7785 61.2879Z" fill="#F9F9F9"/>
<path d="M25.3355 14.21C25.9762 14.21 26.6044 14.2665 27.2138 14.3796V28.376H24.4371V22.5839L24.6067 18.375L21.1893 27.4148C20.693 27.5153 20.2658 27.5656 19.9078 27.5656C19.5497 27.5656 19.1414 27.5153 18.6262 27.4148L15.2088 18.3561L15.3784 22.5902V28.3823H12.6017V14.3859C13.2111 14.2728 13.8393 14.2162 14.4801 14.2162C15.1208 14.2162 15.7491 14.2728 16.3584 14.3859L19.9078 23.8089L23.4571 14.3859C24.0665 14.2728 24.6947 14.2162 25.3355 14.2162V14.21Z" fill="#F9F9F9"/>
<path d="M30.7883 15.5042C30.4868 15.2152 30.3423 14.8571 30.3423 14.4488C30.3423 14.0405 30.4931 13.6824 30.7883 13.3808C31.0898 13.0793 31.4479 12.9348 31.8814 12.9348C32.3148 12.9348 32.6792 13.0793 32.9933 13.3746C33.3074 13.6635 33.4645 14.0279 33.4645 14.4551C33.4645 14.8571 33.3074 15.2026 32.9933 15.5042C32.6792 15.8057 32.3086 15.9502 31.8814 15.9502C31.4542 15.9502 31.0898 15.8057 30.7883 15.5105V15.5042ZM31.9002 17.527C32.4279 17.527 32.8865 17.6149 33.2697 17.7846V28.3824H30.537V17.7846C30.9328 17.6149 31.3914 17.527 31.9065 17.527H31.9002Z" fill="#F9F9F9"/>
<mask id="mask0_3032_8537" style="mask-type:luminance" maskUnits="userSpaceOnUse" x="0" y="2" width="93" height="97">
<path d="M92.6414 2.87085H0.0125122V98.1193H92.6414V2.87085Z" fill="white"/>
</mask>
<g mask="url(#mask0_3032_8537)">
<path d="M60.138 140.115C59.0952 140.115 58.1026 139.499 57.6692 138.482C41.1788 99.5642 26.171 89.1172 26.0202 89.0167C24.7952 88.1937 24.4622 86.529 25.2852 85.304C26.1019 84.079 27.754 83.7397 28.9853 84.5501C29.6449 84.9836 45.3626 95.6882 62.6069 136.39C63.1848 137.753 62.5503 139.323 61.1871 139.901C60.8479 140.046 60.4898 140.115 60.1443 140.115H60.138Z" fill="#6DC28B"/>
<path d="M51.7452 114.823C50.8029 114.823 49.892 114.327 49.402 113.448C31.4039 81.0575 -4.7807 60.4146 -5.14506 60.2136C-6.43288 59.4849 -6.89147 57.8516 -6.16276 56.5637C-5.44032 55.2759 -3.80699 54.8173 -2.51288 55.5398C-0.973781 56.4067 35.3428 77.0998 54.0947 110.841C54.8108 112.135 54.346 113.768 53.0519 114.484C52.6372 114.71 52.1912 114.823 51.7515 114.823H51.7452Z" fill="#F3D941"/>
<path d="M14.4926 78.6764C13.789 78.6764 13.0792 78.4314 12.5012 77.9351C-11.3957 57.3991 -49.0189 42.4415 -53.7493 41.2542C-54.1011 41.2542 -54.4655 41.1788 -54.811 41.0469C-56.3878 40.4312 -57.1667 38.6597 -56.5511 37.0829C-56.193 36.1594 -55.3764 35.4433 -54.4089 35.2046C-53.5231 34.9847 -52.8196 34.8088 -44.9733 37.9247C-39.621 40.0543 -33.3955 42.8121 -27.4464 45.7019C-15.0456 51.7201 2.64467 61.3944 16.4966 73.2989C17.7781 74.3983 17.9226 76.3332 16.8233 77.6147C16.2202 78.3183 15.3595 78.6826 14.4989 78.6826H14.4926V78.6764ZM-50.847 39.3067C-51.048 39.8156 -51.3684 40.2365 -51.7579 40.5632C-51.381 40.2616 -51.0543 39.847 -50.847 39.3067Z" fill="#8464C8"/>
</g>
</svg>
